<mxfile host="app.diagrams.net" modified="2024-02-15T11:22:14.277Z" agent="Mozilla/5.0 (Windows NT 10.0; Win64; x64) AppleWebKit/537.36 (KHTML, like Gecko) Chrome/121.0.0.0 Safari/537.36" etag="Q7C9DFHTa7T_fT_FQc5D" version="23.1.2" type="github">
  <diagram name="1 oldal" id="NilsrryfpZwNAPFmWs4b">
    <mxGraphModel dx="1249" dy="1214" grid="0" gridSize="10" guides="1" tooltips="1" connect="1" arrows="1" fold="1" page="0" pageScale="1" pageWidth="827" pageHeight="1169" math="0" shadow="0">
      <root>
        <mxCell id="0" />
        <mxCell id="1" parent="0" />
        <mxCell id="cI0NetNtEP9HfO99auWf-1" value="Tánc" style="shape=table;startSize=30;container=1;collapsible=1;childLayout=tableLayout;fixedRows=1;rowLines=0;fontStyle=1;align=center;resizeLast=1;html=1;fontSize=16;" vertex="1" parent="1">
          <mxGeometry x="-565" y="-136" width="180" height="96" as="geometry" />
        </mxCell>
        <mxCell id="cI0NetNtEP9HfO99auWf-2" value="" style="shape=tableRow;horizontal=0;startSize=0;swimlaneHead=0;swimlaneBody=0;fillColor=none;collapsible=0;dropTarget=0;points=[[0,0.5],[1,0.5]];portConstraint=eastwest;top=0;left=0;right=0;bottom=1;fontSize=16;" vertex="1" parent="cI0NetNtEP9HfO99auWf-1">
          <mxGeometry y="30" width="180" height="30" as="geometry" />
        </mxCell>
        <mxCell id="cI0NetNtEP9HfO99auWf-3" value="PK" style="shape=partialRectangle;connectable=0;fillColor=none;top=0;left=0;bottom=0;right=0;fontStyle=1;overflow=hidden;whiteSpace=wrap;html=1;fontSize=16;" vertex="1" parent="cI0NetNtEP9HfO99auWf-2">
          <mxGeometry width="30" height="30" as="geometry">
            <mxRectangle width="30" height="30" as="alternateBounds" />
          </mxGeometry>
        </mxCell>
        <mxCell id="cI0NetNtEP9HfO99auWf-4" value="Tánc-id(INT)" style="shape=partialRectangle;connectable=0;fillColor=none;top=0;left=0;bottom=0;right=0;align=left;spacingLeft=6;fontStyle=5;overflow=hidden;whiteSpace=wrap;html=1;fontSize=16;" vertex="1" parent="cI0NetNtEP9HfO99auWf-2">
          <mxGeometry x="30" width="150" height="30" as="geometry">
            <mxRectangle width="150" height="30" as="alternateBounds" />
          </mxGeometry>
        </mxCell>
        <mxCell id="cI0NetNtEP9HfO99auWf-5" value="" style="shape=tableRow;horizontal=0;startSize=0;swimlaneHead=0;swimlaneBody=0;fillColor=none;collapsible=0;dropTarget=0;points=[[0,0.5],[1,0.5]];portConstraint=eastwest;top=0;left=0;right=0;bottom=0;fontSize=16;" vertex="1" parent="cI0NetNtEP9HfO99auWf-1">
          <mxGeometry y="60" width="180" height="36" as="geometry" />
        </mxCell>
        <mxCell id="cI0NetNtEP9HfO99auWf-6" value="" style="shape=partialRectangle;connectable=0;fillColor=none;top=0;left=0;bottom=0;right=0;editable=1;overflow=hidden;whiteSpace=wrap;html=1;fontSize=16;" vertex="1" parent="cI0NetNtEP9HfO99auWf-5">
          <mxGeometry width="30" height="36" as="geometry">
            <mxRectangle width="30" height="36" as="alternateBounds" />
          </mxGeometry>
        </mxCell>
        <mxCell id="cI0NetNtEP9HfO99auWf-7" value="táncnév (varchar)" style="shape=partialRectangle;connectable=0;fillColor=none;top=0;left=0;bottom=0;right=0;align=left;spacingLeft=6;overflow=hidden;whiteSpace=wrap;html=1;fontSize=16;" vertex="1" parent="cI0NetNtEP9HfO99auWf-5">
          <mxGeometry x="30" width="150" height="36" as="geometry">
            <mxRectangle width="150" height="36" as="alternateBounds" />
          </mxGeometry>
        </mxCell>
        <mxCell id="cI0NetNtEP9HfO99auWf-14" value="Nemzetiség" style="shape=table;startSize=30;container=1;collapsible=1;childLayout=tableLayout;fixedRows=1;rowLines=0;fontStyle=1;align=center;resizeLast=1;html=1;fontSize=16;" vertex="1" parent="1">
          <mxGeometry x="-550" y="292" width="180" height="128" as="geometry" />
        </mxCell>
        <mxCell id="cI0NetNtEP9HfO99auWf-15" value="" style="shape=tableRow;horizontal=0;startSize=0;swimlaneHead=0;swimlaneBody=0;fillColor=none;collapsible=0;dropTarget=0;points=[[0,0.5],[1,0.5]];portConstraint=eastwest;top=0;left=0;right=0;bottom=1;fontSize=16;" vertex="1" parent="cI0NetNtEP9HfO99auWf-14">
          <mxGeometry y="30" width="180" height="28" as="geometry" />
        </mxCell>
        <mxCell id="cI0NetNtEP9HfO99auWf-16" value="PK" style="shape=partialRectangle;connectable=0;fillColor=none;top=0;left=0;bottom=0;right=0;fontStyle=1;overflow=hidden;whiteSpace=wrap;html=1;fontSize=16;" vertex="1" parent="cI0NetNtEP9HfO99auWf-15">
          <mxGeometry width="30" height="28" as="geometry">
            <mxRectangle width="30" height="28" as="alternateBounds" />
          </mxGeometry>
        </mxCell>
        <mxCell id="cI0NetNtEP9HfO99auWf-17" value="Nemzetiség-id" style="shape=partialRectangle;connectable=0;fillColor=none;top=0;left=0;bottom=0;right=0;align=left;spacingLeft=6;fontStyle=5;overflow=hidden;whiteSpace=wrap;html=1;fontSize=16;" vertex="1" parent="cI0NetNtEP9HfO99auWf-15">
          <mxGeometry x="30" width="150" height="28" as="geometry">
            <mxRectangle width="150" height="28" as="alternateBounds" />
          </mxGeometry>
        </mxCell>
        <mxCell id="cI0NetNtEP9HfO99auWf-18" value="" style="shape=tableRow;horizontal=0;startSize=0;swimlaneHead=0;swimlaneBody=0;fillColor=none;collapsible=0;dropTarget=0;points=[[0,0.5],[1,0.5]];portConstraint=eastwest;top=0;left=0;right=0;bottom=0;fontSize=16;" vertex="1" parent="cI0NetNtEP9HfO99auWf-14">
          <mxGeometry y="58" width="180" height="40" as="geometry" />
        </mxCell>
        <mxCell id="cI0NetNtEP9HfO99auWf-19" value="" style="shape=partialRectangle;connectable=0;fillColor=none;top=0;left=0;bottom=0;right=0;editable=1;overflow=hidden;whiteSpace=wrap;html=1;fontSize=16;" vertex="1" parent="cI0NetNtEP9HfO99auWf-18">
          <mxGeometry width="30" height="40" as="geometry">
            <mxRectangle width="30" height="40" as="alternateBounds" />
          </mxGeometry>
        </mxCell>
        <mxCell id="cI0NetNtEP9HfO99auWf-20" value="nemzetiség név (VARCHAR)" style="shape=partialRectangle;connectable=0;fillColor=none;top=0;left=0;bottom=0;right=0;align=left;spacingLeft=6;overflow=hidden;whiteSpace=wrap;html=1;fontSize=16;" vertex="1" parent="cI0NetNtEP9HfO99auWf-18">
          <mxGeometry x="30" width="150" height="40" as="geometry">
            <mxRectangle width="150" height="40" as="alternateBounds" />
          </mxGeometry>
        </mxCell>
        <mxCell id="cI0NetNtEP9HfO99auWf-21" value="" style="shape=tableRow;horizontal=0;startSize=0;swimlaneHead=0;swimlaneBody=0;fillColor=none;collapsible=0;dropTarget=0;points=[[0,0.5],[1,0.5]];portConstraint=eastwest;top=0;left=0;right=0;bottom=0;fontSize=16;" vertex="1" parent="cI0NetNtEP9HfO99auWf-14">
          <mxGeometry y="98" width="180" height="30" as="geometry" />
        </mxCell>
        <mxCell id="cI0NetNtEP9HfO99auWf-22" value="" style="shape=partialRectangle;connectable=0;fillColor=none;top=0;left=0;bottom=0;right=0;editable=1;overflow=hidden;whiteSpace=wrap;html=1;fontSize=16;" vertex="1" parent="cI0NetNtEP9HfO99auWf-21">
          <mxGeometry width="30" height="30" as="geometry">
            <mxRectangle width="30" height="30" as="alternateBounds" />
          </mxGeometry>
        </mxCell>
        <mxCell id="cI0NetNtEP9HfO99auWf-23" value="Nyelv (VARCHAR)" style="shape=partialRectangle;connectable=0;fillColor=none;top=0;left=0;bottom=0;right=0;align=left;spacingLeft=6;overflow=hidden;whiteSpace=wrap;html=1;fontSize=16;" vertex="1" parent="cI0NetNtEP9HfO99auWf-21">
          <mxGeometry x="30" width="150" height="30" as="geometry">
            <mxRectangle width="150" height="30" as="alternateBounds" />
          </mxGeometry>
        </mxCell>
        <mxCell id="cI0NetNtEP9HfO99auWf-27" value="Zene" style="shape=table;startSize=30;container=1;collapsible=1;childLayout=tableLayout;fixedRows=1;rowLines=0;fontStyle=1;align=center;resizeLast=1;html=1;fontSize=16;" vertex="1" parent="1">
          <mxGeometry x="-257" y="-140" width="180" height="166.75" as="geometry" />
        </mxCell>
        <mxCell id="cI0NetNtEP9HfO99auWf-28" value="" style="shape=tableRow;horizontal=0;startSize=0;swimlaneHead=0;swimlaneBody=0;fillColor=none;collapsible=0;dropTarget=0;points=[[0,0.5],[1,0.5]];portConstraint=eastwest;top=0;left=0;right=0;bottom=1;fontSize=16;" vertex="1" parent="cI0NetNtEP9HfO99auWf-27">
          <mxGeometry y="30" width="180" height="30" as="geometry" />
        </mxCell>
        <mxCell id="cI0NetNtEP9HfO99auWf-29" value="PK" style="shape=partialRectangle;connectable=0;fillColor=none;top=0;left=0;bottom=0;right=0;fontStyle=1;overflow=hidden;whiteSpace=wrap;html=1;fontSize=16;" vertex="1" parent="cI0NetNtEP9HfO99auWf-28">
          <mxGeometry width="30" height="30" as="geometry">
            <mxRectangle width="30" height="30" as="alternateBounds" />
          </mxGeometry>
        </mxCell>
        <mxCell id="cI0NetNtEP9HfO99auWf-30" value="Zene-id(INT)" style="shape=partialRectangle;connectable=0;fillColor=none;top=0;left=0;bottom=0;right=0;align=left;spacingLeft=6;fontStyle=5;overflow=hidden;whiteSpace=wrap;html=1;fontSize=16;" vertex="1" parent="cI0NetNtEP9HfO99auWf-28">
          <mxGeometry x="30" width="150" height="30" as="geometry">
            <mxRectangle width="150" height="30" as="alternateBounds" />
          </mxGeometry>
        </mxCell>
        <mxCell id="cI0NetNtEP9HfO99auWf-31" value="" style="shape=tableRow;horizontal=0;startSize=0;swimlaneHead=0;swimlaneBody=0;fillColor=none;collapsible=0;dropTarget=0;points=[[0,0.5],[1,0.5]];portConstraint=eastwest;top=0;left=0;right=0;bottom=0;fontSize=16;" vertex="1" parent="cI0NetNtEP9HfO99auWf-27">
          <mxGeometry y="60" width="180" height="30" as="geometry" />
        </mxCell>
        <mxCell id="cI0NetNtEP9HfO99auWf-32" value="" style="shape=partialRectangle;connectable=0;fillColor=none;top=0;left=0;bottom=0;right=0;editable=1;overflow=hidden;whiteSpace=wrap;html=1;fontSize=16;" vertex="1" parent="cI0NetNtEP9HfO99auWf-31">
          <mxGeometry width="30" height="30" as="geometry">
            <mxRectangle width="30" height="30" as="alternateBounds" />
          </mxGeometry>
        </mxCell>
        <mxCell id="cI0NetNtEP9HfO99auWf-33" value="műfaj (VARCHAR)" style="shape=partialRectangle;connectable=0;fillColor=none;top=0;left=0;bottom=0;right=0;align=left;spacingLeft=6;overflow=hidden;whiteSpace=wrap;html=1;fontSize=16;" vertex="1" parent="cI0NetNtEP9HfO99auWf-31">
          <mxGeometry x="30" width="150" height="30" as="geometry">
            <mxRectangle width="150" height="30" as="alternateBounds" />
          </mxGeometry>
        </mxCell>
        <mxCell id="cI0NetNtEP9HfO99auWf-34" value="" style="shape=tableRow;horizontal=0;startSize=0;swimlaneHead=0;swimlaneBody=0;fillColor=none;collapsible=0;dropTarget=0;points=[[0,0.5],[1,0.5]];portConstraint=eastwest;top=0;left=0;right=0;bottom=0;fontSize=16;" vertex="1" parent="cI0NetNtEP9HfO99auWf-27">
          <mxGeometry y="90" width="180" height="30" as="geometry" />
        </mxCell>
        <mxCell id="cI0NetNtEP9HfO99auWf-35" value="" style="shape=partialRectangle;connectable=0;fillColor=none;top=0;left=0;bottom=0;right=0;editable=1;overflow=hidden;whiteSpace=wrap;html=1;fontSize=16;" vertex="1" parent="cI0NetNtEP9HfO99auWf-34">
          <mxGeometry width="30" height="30" as="geometry">
            <mxRectangle width="30" height="30" as="alternateBounds" />
          </mxGeometry>
        </mxCell>
        <mxCell id="cI0NetNtEP9HfO99auWf-36" value="előadó (VARCHAR)" style="shape=partialRectangle;connectable=0;fillColor=none;top=0;left=0;bottom=0;right=0;align=left;spacingLeft=6;overflow=hidden;whiteSpace=wrap;html=1;fontSize=16;" vertex="1" parent="cI0NetNtEP9HfO99auWf-34">
          <mxGeometry x="30" width="150" height="30" as="geometry">
            <mxRectangle width="150" height="30" as="alternateBounds" />
          </mxGeometry>
        </mxCell>
        <mxCell id="cI0NetNtEP9HfO99auWf-37" value="" style="shape=tableRow;horizontal=0;startSize=0;swimlaneHead=0;swimlaneBody=0;fillColor=none;collapsible=0;dropTarget=0;points=[[0,0.5],[1,0.5]];portConstraint=eastwest;top=0;left=0;right=0;bottom=0;fontSize=16;" vertex="1" parent="cI0NetNtEP9HfO99auWf-27">
          <mxGeometry y="120" width="180" height="47" as="geometry" />
        </mxCell>
        <mxCell id="cI0NetNtEP9HfO99auWf-38" value="" style="shape=partialRectangle;connectable=0;fillColor=none;top=0;left=0;bottom=0;right=0;editable=1;overflow=hidden;whiteSpace=wrap;html=1;fontSize=16;" vertex="1" parent="cI0NetNtEP9HfO99auWf-37">
          <mxGeometry width="30" height="47" as="geometry">
            <mxRectangle width="30" height="47" as="alternateBounds" />
          </mxGeometry>
        </mxCell>
        <mxCell id="cI0NetNtEP9HfO99auWf-39" value="hangszerek (VARCHAR)" style="shape=partialRectangle;connectable=0;fillColor=none;top=0;left=0;bottom=0;right=0;align=left;spacingLeft=6;overflow=hidden;whiteSpace=wrap;html=1;fontSize=16;" vertex="1" parent="cI0NetNtEP9HfO99auWf-37">
          <mxGeometry x="30" width="150" height="47" as="geometry">
            <mxRectangle width="150" height="47" as="alternateBounds" />
          </mxGeometry>
        </mxCell>
        <mxCell id="cI0NetNtEP9HfO99auWf-53" value="CSOPORT" style="shape=table;startSize=30;container=1;collapsible=1;childLayout=tableLayout;fixedRows=1;rowLines=0;fontStyle=1;align=center;resizeLast=1;html=1;whiteSpace=wrap;fontSize=16;" vertex="1" parent="1">
          <mxGeometry x="-290" y="117" width="223.75" height="264" as="geometry" />
        </mxCell>
        <mxCell id="cI0NetNtEP9HfO99auWf-54" value="" style="shape=tableRow;horizontal=0;startSize=0;swimlaneHead=0;swimlaneBody=0;fillColor=none;collapsible=0;dropTarget=0;points=[[0,0.5],[1,0.5]];portConstraint=eastwest;top=0;left=0;right=0;bottom=0;html=1;fontSize=16;" vertex="1" parent="cI0NetNtEP9HfO99auWf-53">
          <mxGeometry y="30" width="223.75" height="44" as="geometry" />
        </mxCell>
        <mxCell id="cI0NetNtEP9HfO99auWf-55" value="PK" style="shape=partialRectangle;connectable=0;fillColor=none;top=0;left=0;bottom=0;right=0;fontStyle=1;overflow=hidden;html=1;whiteSpace=wrap;fontSize=16;" vertex="1" parent="cI0NetNtEP9HfO99auWf-54">
          <mxGeometry width="60" height="44" as="geometry">
            <mxRectangle width="60" height="44" as="alternateBounds" />
          </mxGeometry>
        </mxCell>
        <mxCell id="cI0NetNtEP9HfO99auWf-56" value="csoport-id(INT)" style="shape=partialRectangle;connectable=0;fillColor=none;top=0;left=0;bottom=0;right=0;align=left;spacingLeft=6;fontStyle=5;overflow=hidden;html=1;whiteSpace=wrap;fontSize=16;" vertex="1" parent="cI0NetNtEP9HfO99auWf-54">
          <mxGeometry x="60" width="163.75" height="44" as="geometry">
            <mxRectangle width="163.75" height="44" as="alternateBounds" />
          </mxGeometry>
        </mxCell>
        <mxCell id="cI0NetNtEP9HfO99auWf-57" value="" style="shape=tableRow;horizontal=0;startSize=0;swimlaneHead=0;swimlaneBody=0;fillColor=none;collapsible=0;dropTarget=0;points=[[0,0.5],[1,0.5]];portConstraint=eastwest;top=0;left=0;right=0;bottom=1;html=1;fontSize=16;" vertex="1" parent="cI0NetNtEP9HfO99auWf-53">
          <mxGeometry y="74" width="223.75" height="30" as="geometry" />
        </mxCell>
        <mxCell id="cI0NetNtEP9HfO99auWf-58" value="FK" style="shape=partialRectangle;connectable=0;fillColor=none;top=0;left=0;bottom=0;right=0;fontStyle=1;overflow=hidden;html=1;whiteSpace=wrap;fontSize=16;" vertex="1" parent="cI0NetNtEP9HfO99auWf-57">
          <mxGeometry width="60" height="30" as="geometry">
            <mxRectangle width="60" height="30" as="alternateBounds" />
          </mxGeometry>
        </mxCell>
        <mxCell id="cI0NetNtEP9HfO99auWf-59" value="tánc-id(INT)" style="shape=partialRectangle;connectable=0;fillColor=none;top=0;left=0;bottom=0;right=0;align=left;spacingLeft=6;fontStyle=5;overflow=hidden;html=1;whiteSpace=wrap;fontSize=16;" vertex="1" parent="cI0NetNtEP9HfO99auWf-57">
          <mxGeometry x="60" width="163.75" height="30" as="geometry">
            <mxRectangle width="163.75" height="30" as="alternateBounds" />
          </mxGeometry>
        </mxCell>
        <mxCell id="cI0NetNtEP9HfO99auWf-77" style="shape=tableRow;horizontal=0;startSize=0;swimlaneHead=0;swimlaneBody=0;fillColor=none;collapsible=0;dropTarget=0;points=[[0,0.5],[1,0.5]];portConstraint=eastwest;top=0;left=0;right=0;bottom=1;html=1;fontSize=16;" vertex="1" parent="cI0NetNtEP9HfO99auWf-53">
          <mxGeometry y="104" width="223.75" height="30" as="geometry" />
        </mxCell>
        <mxCell id="cI0NetNtEP9HfO99auWf-78" value="FK" style="shape=partialRectangle;connectable=0;fillColor=none;top=0;left=0;bottom=0;right=0;fontStyle=1;overflow=hidden;html=1;whiteSpace=wrap;fontSize=16;" vertex="1" parent="cI0NetNtEP9HfO99auWf-77">
          <mxGeometry width="60" height="30" as="geometry">
            <mxRectangle width="60" height="30" as="alternateBounds" />
          </mxGeometry>
        </mxCell>
        <mxCell id="cI0NetNtEP9HfO99auWf-79" value="zene-id(INT)" style="shape=partialRectangle;connectable=0;fillColor=none;top=0;left=0;bottom=0;right=0;align=left;spacingLeft=6;fontStyle=5;overflow=hidden;html=1;whiteSpace=wrap;fontSize=16;" vertex="1" parent="cI0NetNtEP9HfO99auWf-77">
          <mxGeometry x="60" width="163.75" height="30" as="geometry">
            <mxRectangle width="163.75" height="30" as="alternateBounds" />
          </mxGeometry>
        </mxCell>
        <mxCell id="cI0NetNtEP9HfO99auWf-74" style="shape=tableRow;horizontal=0;startSize=0;swimlaneHead=0;swimlaneBody=0;fillColor=none;collapsible=0;dropTarget=0;points=[[0,0.5],[1,0.5]];portConstraint=eastwest;top=0;left=0;right=0;bottom=1;html=1;fontSize=16;" vertex="1" parent="cI0NetNtEP9HfO99auWf-53">
          <mxGeometry y="134" width="223.75" height="30" as="geometry" />
        </mxCell>
        <mxCell id="cI0NetNtEP9HfO99auWf-75" value="FK" style="shape=partialRectangle;connectable=0;fillColor=none;top=0;left=0;bottom=0;right=0;fontStyle=1;overflow=hidden;html=1;whiteSpace=wrap;fontSize=16;" vertex="1" parent="cI0NetNtEP9HfO99auWf-74">
          <mxGeometry width="60" height="30" as="geometry">
            <mxRectangle width="60" height="30" as="alternateBounds" />
          </mxGeometry>
        </mxCell>
        <mxCell id="cI0NetNtEP9HfO99auWf-76" value="nemzetiség-id(INT)" style="shape=partialRectangle;connectable=0;fillColor=none;top=0;left=0;bottom=0;right=0;align=left;spacingLeft=6;fontStyle=5;overflow=hidden;html=1;whiteSpace=wrap;fontSize=16;" vertex="1" parent="cI0NetNtEP9HfO99auWf-74">
          <mxGeometry x="60" width="163.75" height="30" as="geometry">
            <mxRectangle width="163.75" height="30" as="alternateBounds" />
          </mxGeometry>
        </mxCell>
        <mxCell id="cI0NetNtEP9HfO99auWf-60" value="" style="shape=tableRow;horizontal=0;startSize=0;swimlaneHead=0;swimlaneBody=0;fillColor=none;collapsible=0;dropTarget=0;points=[[0,0.5],[1,0.5]];portConstraint=eastwest;top=0;left=0;right=0;bottom=0;html=1;fontSize=16;" vertex="1" parent="cI0NetNtEP9HfO99auWf-53">
          <mxGeometry y="164" width="223.75" height="40" as="geometry" />
        </mxCell>
        <mxCell id="cI0NetNtEP9HfO99auWf-61" value="" style="shape=partialRectangle;connectable=0;fillColor=none;top=0;left=0;bottom=0;right=0;editable=1;overflow=hidden;html=1;whiteSpace=wrap;fontSize=16;" vertex="1" parent="cI0NetNtEP9HfO99auWf-60">
          <mxGeometry width="60" height="40" as="geometry">
            <mxRectangle width="60" height="40" as="alternateBounds" />
          </mxGeometry>
        </mxCell>
        <mxCell id="cI0NetNtEP9HfO99auWf-62" value="csoportnév (VARCHAR)" style="shape=partialRectangle;connectable=0;fillColor=none;top=0;left=0;bottom=0;right=0;align=left;spacingLeft=6;overflow=hidden;html=1;whiteSpace=wrap;fontSize=16;" vertex="1" parent="cI0NetNtEP9HfO99auWf-60">
          <mxGeometry x="60" width="163.75" height="40" as="geometry">
            <mxRectangle width="163.75" height="40" as="alternateBounds" />
          </mxGeometry>
        </mxCell>
        <mxCell id="cI0NetNtEP9HfO99auWf-63" value="" style="shape=tableRow;horizontal=0;startSize=0;swimlaneHead=0;swimlaneBody=0;fillColor=none;collapsible=0;dropTarget=0;points=[[0,0.5],[1,0.5]];portConstraint=eastwest;top=0;left=0;right=0;bottom=0;html=1;fontSize=16;" vertex="1" parent="cI0NetNtEP9HfO99auWf-53">
          <mxGeometry y="204" width="223.75" height="30" as="geometry" />
        </mxCell>
        <mxCell id="cI0NetNtEP9HfO99auWf-64" value="" style="shape=partialRectangle;connectable=0;fillColor=none;top=0;left=0;bottom=0;right=0;editable=1;overflow=hidden;html=1;whiteSpace=wrap;fontSize=16;" vertex="1" parent="cI0NetNtEP9HfO99auWf-63">
          <mxGeometry width="60" height="30" as="geometry">
            <mxRectangle width="60" height="30" as="alternateBounds" />
          </mxGeometry>
        </mxCell>
        <mxCell id="cI0NetNtEP9HfO99auWf-65" value="átlagéletkor(FLOAT)" style="shape=partialRectangle;connectable=0;fillColor=none;top=0;left=0;bottom=0;right=0;align=left;spacingLeft=6;overflow=hidden;html=1;whiteSpace=wrap;fontSize=16;" vertex="1" parent="cI0NetNtEP9HfO99auWf-63">
          <mxGeometry x="60" width="163.75" height="30" as="geometry">
            <mxRectangle width="163.75" height="30" as="alternateBounds" />
          </mxGeometry>
        </mxCell>
        <mxCell id="cI0NetNtEP9HfO99auWf-68" value="" style="shape=tableRow;horizontal=0;startSize=0;swimlaneHead=0;swimlaneBody=0;fillColor=none;collapsible=0;dropTarget=0;points=[[0,0.5],[1,0.5]];portConstraint=eastwest;top=0;left=0;right=0;bottom=0;html=1;fontSize=16;" vertex="1" parent="cI0NetNtEP9HfO99auWf-53">
          <mxGeometry y="234" width="223.75" height="30" as="geometry" />
        </mxCell>
        <mxCell id="cI0NetNtEP9HfO99auWf-69" value="" style="shape=partialRectangle;connectable=0;fillColor=none;top=0;left=0;bottom=0;right=0;editable=1;overflow=hidden;html=1;whiteSpace=wrap;fontSize=16;" vertex="1" parent="cI0NetNtEP9HfO99auWf-68">
          <mxGeometry width="60" height="30" as="geometry">
            <mxRectangle width="60" height="30" as="alternateBounds" />
          </mxGeometry>
        </mxCell>
        <mxCell id="cI0NetNtEP9HfO99auWf-70" value="oktató(VARCHAR)" style="shape=partialRectangle;connectable=0;fillColor=none;top=0;left=0;bottom=0;right=0;align=left;spacingLeft=6;overflow=hidden;html=1;whiteSpace=wrap;fontSize=16;" vertex="1" parent="cI0NetNtEP9HfO99auWf-68">
          <mxGeometry x="60" width="163.75" height="30" as="geometry">
            <mxRectangle width="163.75" height="30" as="alternateBounds" />
          </mxGeometry>
        </mxCell>
        <mxCell id="cI0NetNtEP9HfO99auWf-80" style="edgeStyle=orthogonalEdgeStyle;rounded=0;orthogonalLoop=1;jettySize=auto;html=1;entryX=0;entryY=0.5;entryDx=0;entryDy=0;fontSize=12;startSize=8;endSize=8;" edge="1" parent="1" source="cI0NetNtEP9HfO99auWf-2" target="cI0NetNtEP9HfO99auWf-57">
          <mxGeometry relative="1" as="geometry" />
        </mxCell>
        <mxCell id="cI0NetNtEP9HfO99auWf-84" style="edgeStyle=orthogonalEdgeStyle;shape=connector;rounded=0;orthogonalLoop=1;jettySize=auto;html=1;entryX=0;entryY=0.5;entryDx=0;entryDy=0;labelBackgroundColor=default;strokeColor=default;align=center;verticalAlign=middle;fontFamily=Helvetica;fontSize=12;fontColor=default;endArrow=classic;startSize=8;endSize=8;" edge="1" parent="1" source="cI0NetNtEP9HfO99auWf-34" target="cI0NetNtEP9HfO99auWf-77">
          <mxGeometry relative="1" as="geometry" />
        </mxCell>
        <mxCell id="cI0NetNtEP9HfO99auWf-85" style="edgeStyle=orthogonalEdgeStyle;shape=connector;rounded=0;orthogonalLoop=1;jettySize=auto;html=1;entryX=0;entryY=0.5;entryDx=0;entryDy=0;labelBackgroundColor=default;strokeColor=default;align=center;verticalAlign=middle;fontFamily=Helvetica;fontSize=12;fontColor=default;endArrow=classic;startSize=8;endSize=8;" edge="1" parent="1" source="cI0NetNtEP9HfO99auWf-18" target="cI0NetNtEP9HfO99auWf-74">
          <mxGeometry relative="1" as="geometry" />
        </mxCell>
      </root>
    </mxGraphModel>
  </diagram>
</mxfile>
